<svg width="18" height="19" viewBox="0 0 18 19" fill="none" xmlns="http://www.w3.org/2000/svg">
<path d="M16.7109 5.4209C17.0142 5.62305 17.25 5.95996 17.25 6.33057C17.25 6.90332 16.7783 7.375 16.1719 7.375H1.04443C0.437988 7.375 0 6.90332 0 6.33057C0 5.95996 0.202148 5.62305 0.505371 5.4209L8.35547 1.00732C8.52393 0.90625 8.69238 0.90625 8.86084 1.00732L16.7109 5.4209ZM16.0708 6.29688L8.625 2.08545L1.14551 6.29688H6.90674C6.77197 6.06104 6.73828 5.7915 6.73828 5.48828C6.73828 4.47754 7.58057 3.60156 8.625 3.60156C9.63574 3.60156 10.5117 4.47754 10.5117 5.48828C10.5117 5.7915 10.4443 6.06104 10.3096 6.29688H16.0708ZM8.625 6.29688C9.06299 6.29688 9.43359 5.95996 9.43359 5.48828C9.43359 5.05029 9.06299 4.67969 8.625 4.67969C8.15332 4.67969 7.81641 5.05029 7.81641 5.48828C7.81641 5.95996 8.15332 6.29688 8.625 6.29688ZM2.15625 8.45312H3.23438V12.7656H5.92969V8.45312H7.00781V12.7656H10.2422V8.45312H11.3203V12.7656H14.0156V8.45312H15.0938V12.7656C15.3633 12.7656 15.6328 13.0352 15.6328 13.3047C15.6328 13.6079 15.3633 13.8438 15.0938 13.8438H2.15625C1.85303 13.8438 1.61719 13.6079 1.61719 13.3047C1.61719 13.0352 1.85303 12.7656 2.15625 12.7656V8.45312ZM15.9023 14.9219C16.1719 14.9219 16.4414 15.1914 16.4414 15.4609C16.4414 15.7642 16.1719 16 15.9023 16H1.34766C1.04443 16 0.808594 15.7642 0.808594 15.4609C0.808594 15.1914 1.04443 14.9219 1.34766 14.9219H15.9023ZM16.7109 17.0781C16.9805 17.0781 17.25 17.3477 17.25 17.6172C17.25 17.9204 16.9805 18.1562 16.7109 18.1562H0.539062C0.23584 18.1562 0 17.9204 0 17.6172C0 17.3477 0.23584 17.0781 0.539062 17.0781H16.7109Z" fill="#CDA048"/>
</svg>
