<svg width="18" height="19" viewBox="0 0 18 19" fill="none" xmlns="http://www.w3.org/2000/svg">
<path d="M10.7812 12.4961C10.7812 12.0581 11.1182 11.6875 11.5898 11.6875H13.207C13.645 11.6875 14.0156 12.0581 14.0156 12.4961V14.1133C14.0156 14.585 13.645 14.9219 13.207 14.9219H11.5898C11.1182 14.9219 10.7812 14.585 10.7812 14.1133V12.4961ZM12.9375 13.8438V12.7656H11.8594V13.8438H12.9375ZM10.7812 3.87109C10.7812 3.43311 11.1182 3.0625 11.5898 3.0625H13.207C13.645 3.0625 14.0156 3.43311 14.0156 3.87109V5.48828C14.0156 5.95996 13.645 6.29688 13.207 6.29688H11.5898C11.1182 6.29688 10.7812 5.95996 10.7812 5.48828V3.87109ZM11.8594 4.14062V5.21875H12.9375V4.14062H11.8594ZM11.5898 10.6094C11.1182 10.6094 10.7812 10.2725 10.7812 9.80078V8.18359C10.7812 7.74561 11.1182 7.375 11.5898 7.375H13.207C13.645 7.375 14.0156 7.74561 14.0156 8.18359V9.80078C14.0156 10.2725 13.645 10.6094 13.207 10.6094H11.5898ZM11.8594 8.45312V9.53125H12.9375V8.45312H11.8594ZM15.0938 0.90625C16.2729 0.90625 17.25 1.8833 17.25 3.0625V16C17.25 17.2129 16.2729 18.1562 15.0938 18.1562H9.70312C8.49023 18.1562 7.54688 17.2129 7.54688 16V3.0625C7.54688 1.8833 8.49023 0.90625 9.70312 0.90625H15.0938ZM15.0938 1.98438H9.70312C9.09668 1.98438 8.625 2.48975 8.625 3.0625V16C8.625 16.6064 9.09668 17.0781 9.70312 17.0781H15.0938C15.6665 17.0781 16.1719 16.6064 16.1719 16V3.0625C16.1719 2.48975 15.6665 1.98438 15.0938 1.98438ZM5.92969 6.29688H2.15625C1.5498 6.29688 1.07812 6.80225 1.07812 7.375V16C1.07812 16.6064 1.5498 17.0781 2.15625 17.0781H6.46875C6.73828 17.0781 7.00781 17.3477 7.00781 17.6172C7.00781 17.9204 6.73828 18.1562 6.46875 18.1562H2.15625C0.943359 18.1562 0 17.2129 0 16V7.375C0 6.1958 0.943359 5.21875 2.15625 5.21875H5.92969C6.19922 5.21875 6.46875 5.48828 6.46875 5.75781C6.46875 6.06104 6.19922 6.29688 5.92969 6.29688ZM4.58203 11.6875C5.02002 11.6875 5.39062 12.0581 5.39062 12.4961V14.1133C5.39062 14.585 5.02002 14.9219 4.58203 14.9219H2.96484C2.49316 14.9219 2.15625 14.585 2.15625 14.1133V12.4961C2.15625 12.0581 2.49316 11.6875 2.96484 11.6875H4.58203ZM4.3125 13.8438V12.7656H3.23438V13.8438H4.3125ZM4.58203 7.375C5.02002 7.375 5.39062 7.74561 5.39062 8.18359V9.80078C5.39062 10.2725 5.02002 10.6094 4.58203 10.6094H2.96484C2.49316 10.6094 2.15625 10.2725 2.15625 9.80078V8.18359C2.15625 7.74561 2.49316 7.375 2.96484 7.375H4.58203ZM4.3125 9.53125V8.45312H3.23438V9.53125H4.3125Z" fill="#CDA048"/>
</svg>
