<svg width="11" height="16" viewBox="0 0 11 16" fill="none" xmlns="http://www.w3.org/2000/svg">
<path d="M10.3096 12.3599C10.5791 12.4946 10.7812 12.7642 10.7812 13.0674V14.3477C10.7812 14.8193 10.4106 15.1562 9.97266 15.1562H0.808594C0.336914 15.1562 0 14.8193 0 14.3477V13.0674C0 12.7642 0.168457 12.4946 0.437988 12.3599L1.07812 12.0566V11.6523C1.07812 11.2144 1.41504 10.8438 1.88672 10.8438H8.89453C9.33252 10.8438 9.70312 11.2144 9.70312 11.6523V12.0566L10.3096 12.3599ZM9.70312 14.0781V13.2358L8.625 12.6968V11.9219H2.15625V12.6968L1.07812 13.2358V14.0781H9.70312ZM2.39209 5.75635L1.51611 4.88037C1.21289 4.57715 1.07812 4.17285 1.07812 3.73486V0.871094C1.07812 0.433105 1.41504 0.0625 1.88672 0.0625H8.89453C9.33252 0.0625 9.70312 0.433105 9.70312 0.871094V3.73486C9.70312 4.17285 9.53467 4.57715 9.23145 4.88037L8.35547 5.75635L8.59131 9.19287C8.625 9.49609 8.38916 9.76562 8.11963 9.76562C7.8501 9.79932 7.54688 9.56348 7.54688 9.29395L7.24365 5.35205L8.45654 4.13916C8.55762 4.00439 8.625 3.90332 8.625 3.73486V1.14062H7.00781V2.21875C7.00781 2.52197 6.73828 2.75781 6.46875 2.75781C6.16553 2.75781 5.92969 2.52197 5.92969 2.21875V1.14062H4.85156V2.21875C4.85156 2.52197 4.58203 2.75781 4.3125 2.75781C4.00928 2.75781 3.77344 2.52197 3.77344 2.21875V1.14062H2.15625V3.73486C2.15625 3.90332 2.18994 4.00439 2.29102 4.10547L3.50391 5.35205L3.20068 9.29395C3.20068 9.56348 2.96484 9.76562 2.69531 9.76562C2.66162 9.76562 2.66162 9.76562 2.62793 9.76562C2.3584 9.76562 2.12256 9.49609 2.15625 9.19287L2.39209 5.75635ZM4.85156 5.45312C4.85156 5.18359 5.0874 4.91406 5.39062 4.91406C5.66016 4.91406 5.92969 5.18359 5.92969 5.45312V6.53125H4.85156V5.45312Z" fill="#CDA048"/>
</svg>
