<svg width="18" height="18" viewBox="0 0 18 18" fill="none" xmlns="http://www.w3.org/2000/svg">
<path d="M16.292 11.228C17.0502 11.5576 17.4788 12.3818 17.248 13.2059L16.5558 16.2057C16.4239 16.9969 15.7316 17.5243 14.9075 17.5243C6.92993 17.5243 0.46875 11.0631 0.46875 3.08557C0.46875 2.26144 0.996193 1.56917 1.78736 1.40434L4.78719 0.712072C5.61132 0.514281 6.43545 0.942829 6.7651 1.70103L8.18261 4.99755C8.47929 5.68982 8.24854 6.51395 7.68813 7.00843L6.56731 7.89849C7.42441 9.34895 8.64412 10.5687 10.1276 11.4258L11.0176 10.3379C11.5121 9.74454 12.3362 9.51378 13.0615 9.84343L16.292 11.228ZM15.7316 12.8433C15.7646 12.7773 15.7316 12.7114 15.6657 12.6455L12.4351 11.2609C12.3692 11.228 12.3033 11.2609 12.2703 11.2939L10.9517 12.9092C10.7209 13.2059 10.2924 13.2718 9.96273 13.107C7.75406 12.0191 5.94097 10.206 4.85312 7.99738C4.6883 7.66773 4.78719 7.27215 5.05091 7.04139L6.66621 5.72278C6.73214 5.68982 6.73214 5.62389 6.69917 5.55796L5.31463 2.32737C5.28167 2.2944 5.2487 2.22847 5.18277 2.22847L5.14981 2.26144L2.14998 2.95371C2.08404 2.95371 2.01811 3.01964 2.01811 3.08557C2.01811 10.1731 7.81999 15.942 14.9075 15.942C14.9734 15.942 15.0394 15.8761 15.0394 15.8431L15.7316 12.8433Z" fill="#CDA048"/>
</svg>
