<svg width="23" height="19" viewBox="0 0 23 19" fill="none" xmlns="http://www.w3.org/2000/svg">
<path d="M18.7891 17.0781C19.0586 17.0781 19.3281 17.3477 19.2944 17.6172C19.2944 17.9204 19.0249 18.1562 18.7554 18.1562H4.73975C4.43652 18.1562 4.20068 17.9204 4.20068 17.6172C4.20068 17.3477 4.43652 17.0781 4.73975 17.0781H11.1748V5.15137C10.2651 4.91553 9.59131 4.07324 9.59131 3.0625H4.73975C4.43652 3.0625 4.20068 2.82666 4.20068 2.52344C4.20068 2.25391 4.43652 1.98438 4.73975 1.98438H9.92822C9.92822 1.98438 10.063 1.61377 10.5684 1.27686C10.9053 1.04102 11.3096 0.90625 11.7812 0.90625C12.2192 0.90625 12.6235 1.04102 12.9268 1.27686C13.4321 1.61377 13.5669 1.98438 13.6006 2.01807H18.7554C19.0249 2.01807 19.2944 2.25391 19.2944 2.55713C19.2944 2.82666 19.0249 3.09619 18.7554 3.09619H13.9038C13.9038 4.07324 13.23 4.91553 12.3203 5.15137V17.0781H18.7891ZM10.6694 3.0625C10.6694 3.66895 11.1748 4.14062 11.7812 4.14062C12.354 4.14062 12.8257 3.66895 12.8257 3.0625C12.8257 2.48975 12.3203 1.98438 11.7476 1.98438C11.1411 1.98438 10.6694 2.48975 10.6694 3.0625ZM22.3604 10.3398C22.4951 10.5083 22.5625 10.7441 22.5288 10.98C22.3604 13.2036 20.5073 14.9219 18.25 14.9219C15.959 14.9219 14.106 13.2036 13.9375 10.9463C13.9038 10.7104 13.9712 10.4746 14.106 10.3062L17.7783 4.41016C17.8794 4.2417 18.0479 4.14062 18.25 4.14062C18.4185 4.14062 18.5869 4.2417 18.688 4.41016L22.3604 10.3398ZM18.25 13.8438C19.6313 13.8438 20.8442 12.9678 21.2822 11.6875H15.1841C15.6221 12.9341 16.835 13.8438 18.25 13.8438ZM15.1841 10.6094H21.3159L18.25 5.72412L15.1841 10.6094ZM9.59131 10.98C9.42285 13.2036 7.56982 14.9219 5.27881 14.9219C3.02148 14.9219 1.16846 13.2036 1 10.98C0.966309 10.7441 1.03369 10.5083 1.16846 10.3398L4.84082 4.41016C4.94189 4.2417 5.11035 4.14062 5.27881 4.14062C5.48096 4.14062 5.64941 4.2417 5.75049 4.41016L9.42285 10.3398C9.55762 10.5083 9.625 10.7441 9.59131 10.98ZM5.27881 5.72412L2.24658 10.6094H8.34473L5.27881 5.72412ZM2.24658 11.6875C2.68457 12.9341 3.89746 13.8438 5.27881 13.8438C6.69385 13.8438 7.87305 12.9678 8.34473 11.6875H2.24658Z" fill="#CDA048"/>
</svg>
