<svg width="17" height="19" viewBox="0 0 17 19" fill="none" xmlns="http://www.w3.org/2000/svg">
<path d="M15.7002 3.73633C16.3066 4.00586 16.7109 4.57861 16.7109 5.21875C16.7109 13.9785 10.2759 18.1562 8.59131 18.1562C6.90674 18.1562 0.539062 13.9111 0.539062 5.21875C0.539062 4.57861 0.909668 4.00586 1.51611 3.73633L7.98486 1.04102C8.18701 0.973633 8.38916 0.939941 8.625 0.939941C8.82715 0.939941 9.0293 0.973633 9.23145 1.04102L15.7002 3.73633ZM15.5991 5.25244C15.5991 5.15137 15.5991 4.88184 15.2959 4.74707L8.82715 2.05176C8.75977 2.01807 8.69238 1.98438 8.625 1.98438C8.52393 1.98438 8.45654 2.01807 8.38916 2.05176L1.92041 4.74707C1.71826 4.81445 1.61719 5.0166 1.61719 5.21875C1.61719 12.7993 7.17627 17.0781 8.625 17.0781C10.0063 17.0781 15.5991 12.833 15.5991 5.25244ZM11.3203 7.03809C11.6235 7.03809 11.8594 7.27393 11.8594 7.57715C11.8594 7.71191 11.792 7.84668 11.6909 7.94775L8.08594 11.5527C7.98486 11.6538 7.8501 11.6875 7.71533 11.6875C7.58057 11.6875 7.4458 11.6538 7.34473 11.5527L5.52539 9.76709C5.42432 9.63232 5.39062 9.49756 5.39062 9.36279C5.39062 9.09326 5.59277 8.82373 5.92969 8.82373C6.06445 8.82373 6.19922 8.89111 6.30029 8.99219L7.71533 10.4072L10.916 7.17285C11.0171 7.07178 11.1519 7.03809 11.3203 7.03809Z" fill="#CDA048"/>
</svg>
