<svg width="20" height="19" viewBox="0 0 20 19" fill="none" xmlns="http://www.w3.org/2000/svg">
<path d="M11.3203 0.90625C12.1963 0.90625 12.9375 1.64746 12.9375 2.52344V3.0625H14.5547C15.4307 3.0625 16.1719 3.80371 16.1719 4.67969V8.9248L17.2837 9.29541C18.4629 9.66602 18.7998 11.1484 17.8901 11.9907L14.8916 14.7871C14.6895 14.9893 14.3525 14.9893 14.1504 14.7534C13.9482 14.5513 13.9482 14.2144 14.1841 14.0122L17.1489 11.2158C17.4521 10.9463 17.3511 10.4409 16.9468 10.3062L10.2422 8.11621V13.8438C10.2422 14.147 9.97266 14.3828 9.66943 14.3828C9.3999 14.3828 9.13037 14.147 9.13037 13.8438V8.11621L2.42578 10.3062C2.02148 10.4409 1.92041 10.9463 2.22363 11.2158L5.18848 14.0122C5.42432 14.2144 5.42432 14.5513 5.22217 14.7534C5.02002 14.9893 4.68311 14.9893 4.48096 14.7871L1.48242 11.9907C0.572754 11.1484 0.909668 9.66602 2.08887 9.29541L3.20068 8.9248V4.67969C3.20068 3.80371 3.94189 3.0625 4.81787 3.0625H6.43506V2.52344C6.43506 1.64746 7.17627 0.90625 8.05225 0.90625H11.3203ZM11.8594 3.0625V2.52344C11.8594 2.25391 11.5898 1.98438 11.3203 1.98438H8.05225C7.78271 1.98438 7.51318 2.25391 7.51318 2.52344V3.0625H11.8594ZM4.81787 4.14062C4.54834 4.14062 4.27881 4.41016 4.27881 4.67969V8.5542L9.19775 6.9707C9.50098 6.86963 9.87158 6.86963 10.1748 6.9707L15.0938 8.5542V4.67969C15.0938 4.41016 14.8242 4.14062 14.5547 4.14062H4.81787ZM4.48096 16.3706C5.05371 16.7412 5.76123 17.0781 6.43506 17.0781C7.14258 17.0781 7.8501 16.7412 8.42285 16.3706C8.72607 16.1685 9.0293 15.8989 9.29883 15.6294C9.50098 15.4272 9.87158 15.4272 10.0737 15.6294C10.3433 15.8989 10.6128 16.1685 10.9497 16.3706C11.5225 16.7412 12.23 17.0781 12.9038 17.0781C13.6113 17.0781 14.3188 16.7412 14.8916 16.3706C15.1948 16.1685 15.498 15.8989 15.7676 15.6294C15.9697 15.4272 16.3403 15.4272 16.5425 15.6294C16.812 15.8989 17.0815 16.1685 17.4185 16.3706C17.8564 16.6738 18.3618 16.9434 18.9009 17.0444C19.1704 17.1118 19.4062 17.314 19.4062 17.5835C19.4062 17.8867 19.103 18.1899 18.7998 18.1226C18.0249 17.9878 17.3174 17.6172 16.812 17.2803C16.5425 17.0781 16.3403 16.9097 16.1382 16.7412C15.9697 16.9097 15.7676 17.0781 15.498 17.2803C14.8579 17.6846 13.9482 18.1562 12.9038 18.1562C11.8931 18.1562 10.9834 17.6846 10.3433 17.2803C10.0737 17.0781 9.87158 16.9097 9.66943 16.7412C9.50098 16.9097 9.29883 17.0781 9.0293 17.2803C8.38916 17.6846 7.47949 18.1562 6.43506 18.1562C5.42432 18.1562 4.51465 17.6846 3.87451 17.2803C3.60498 17.0781 3.40283 16.9097 3.20068 16.7412C3.03223 16.9097 2.83008 17.0781 2.56055 17.2803C2.05518 17.6172 1.34766 17.9878 0.572754 18.1226C0.269531 18.1899 0 17.8867 0 17.5835C0 17.314 0.202148 17.1118 0.47168 17.0444C1.01074 16.9434 1.51611 16.6738 1.9541 16.3706C2.25732 16.1685 2.56055 15.8989 2.83008 15.6294C3.03223 15.4272 3.40283 15.4272 3.60498 15.6294C3.87451 15.8989 4.17773 16.1685 4.48096 16.3706Z" fill="#CDA048"/>
</svg>
