<svg width="13" height="13" viewBox="0 0 13 13" fill="none" xmlns="http://www.w3.org/2000/svg">
<path d="M11.25 8.02344C11.7891 8.25781 12.0938 8.84375 11.9297 9.42969L11.4375 11.5625C11.3438 12.125 10.8516 12.5 10.2656 12.5C4.59375 12.5 0 7.90625 0 2.23438C0 1.64844 0.375 1.15625 0.9375 1.03906L3.07031 0.546875C3.65625 0.40625 4.24219 0.710938 4.47656 1.25L5.48438 3.59375C5.69531 4.08594 5.53125 4.67188 5.13281 5.02344L4.33594 5.65625C4.94531 6.6875 5.8125 7.55469 6.86719 8.16406L7.5 7.39062C7.85156 6.96875 8.4375 6.80469 8.95312 7.03906L11.25 8.02344ZM10.8516 9.17188C10.875 9.125 10.8516 9.07812 10.8047 9.03125L8.50781 8.04688C8.46094 8.02344 8.41406 8.04688 8.39062 8.07031L7.45312 9.21875C7.28906 9.42969 6.98438 9.47656 6.75 9.35938C5.17969 8.58594 3.89062 7.29688 3.11719 5.72656C3 5.49219 3.07031 5.21094 3.25781 5.04688L4.40625 4.10938C4.45312 4.08594 4.45312 4.03906 4.42969 3.99219L3.44531 1.69531C3.42188 1.67188 3.39844 1.625 3.35156 1.625L3.32812 1.64844L1.19531 2.14062C1.14844 2.14062 1.10156 2.1875 1.10156 2.23438C1.10156 7.27344 5.22656 11.375 10.2656 11.375C10.3125 11.375 10.3594 11.3281 10.3594 11.3047L10.8516 9.17188Z" fill="white"/>
</svg>
